<svg width="24" height="24" xmlns="http://www.w3.org/2000/svg" preserveAspectRatio="xMidYMid meet" version="1.0">

 <g>
  <title>Layer 1</title>
  <g id="svg_1" fill="#000000" transform="translate(0 24) scale(0.1 -0.1)">
   <path id="svg_2" d="m209.41349,126.17302c0,-43 4,-75 10,-75c6,0 10,32 10,75c0,43 -4,75 -10,75c-6,0 -10,-32 -10,-75z"/>
   <path id="svg_3" d="m117.41349,169.17302c-59,-18 -68,-24 -68,-44c0,-13 5,-24 10,-24c6,0 10,-7 10,-15c0,-23 46,-41 64,-26c8,7 24,10 36,6c19,-6 20,-2 20,59c0,36 -1,66 -2,65c-2,-1 -33,-10 -70,-21zm1,-87c10,-6 10,-10 1,-16c-7,-4 -19,0 -28,9c-14,13 -14,16 -2,16c8,0 21,-4 29,-9z"/>
   <path id="svg_4" d="m13.41349,136.17302c-3,-8 -3,-19 1,-25c11,-18 25,-11 25,15c0,27 -17,34 -26,10z"/>
  </g>
  <rect stroke="#000" id="svg_6" height="14.2522" width="1.46628" y="4.30498" x="21.26686" fill="#fff"/>
  <line stroke="#000" id="svg_7" y2="18.08798" x2="22.08798" y1="4.30498" x1="21.79472" fill="none"/>
  <rect stroke="#000" id="svg_8" height="4.39883" width="2.52199" y="9.23167" x="1.20821" fill="#fff"/>
  <path d="m1.50146,10.40469c0.05865,0 0.15035,0.0412 0.29326,0.35191c0.155,0.337 0.23276,0.72798 0.35191,0.93842c0.08173,0.14436 0.17595,0.29325 0.2346,0.52786c0.05865,0.2346 0.07583,0.33473 0.1173,0.29326c0.33178,-0.33178 -0.01995,-0.94001 -0.05865,-1.40763c-0.02943,-0.35554 -0.05865,-0.76246 -0.05865,-1.05572c0,-0.17595 0.05865,-0.41056 0,-0.41056c-0.05865,0 -0.03758,0.17898 0,0.41056c0.05942,0.36615 0.12898,0.64895 0.17595,0.93842c0.02971,0.18308 0.13448,0.33473 0.17595,0.29326c0.16589,-0.16589 0.09623,-0.70738 0.17595,-1.11437c0.04649,-0.23732 0.10012,-0.31043 0.05865,-0.35191c-0.08295,-0.08294 -0.17595,-0.1173 -0.35191,-0.17595c-0.17595,-0.05865 -0.20816,-0.11467 -0.41056,-0.17595c-0.05613,-0.017 -0.09932,-0.02691 -0.17595,-0.05865c-0.10837,-0.04489 -0.17595,0 -0.2346,0c-0.05865,0 -0.08717,0.10697 -0.1173,0.2346c-0.0539,0.22833 -0.06733,0.42395 0,0.58651c0.03174,0.07663 0.1173,0.1173 0.17595,0.1173c0.05865,0 0.17595,0 0.35191,0c0.05865,0 0.12837,-0.03429 0.17595,0c0.15046,0.10845 0.09418,0.4117 0.1173,0.64516c0.02947,0.29761 0.08759,0.52074 0.1173,0.70381c0.01879,0.11579 0.08717,0.28292 0.1173,0.41056c0.01348,0.05708 0.05865,0.05865 0.05865,0.1173c0,0.05865 0.01718,0.19313 0.05865,0.2346c0.04147,0.04147 0.07583,0.10012 0.1173,0.05865c0.04147,-0.04147 0,-0.17595 0,-0.41056c0,-0.17595 0,-0.35191 0,-0.52786c0,-0.05865 -0.05865,-0.05865 -0.05865,0c0,0.1173 0.02818,0.29553 0,0.46921c-0.02971,0.18308 -0.05865,0.29326 -0.05865,0.35191c0,0.05865 0,0.1173 0,0.17595c0,0.05865 0,0.1173 0,0.17595c0,0.05865 -0.01091,0.09927 -0.1173,0.17595c-0.13458,0.097 -0.27527,0.26635 -0.35191,0.2346c-0.05419,-0.02244 -0.12821,-0.09927 -0.2346,-0.17595c-0.06729,-0.0485 -0.12177,-0.09486 -0.17595,-0.1173c-0.07663,-0.03174 -0.07583,-0.07583 -0.1173,-0.1173c-0.04147,-0.04147 0,-0.1173 0,-0.17595c0,-0.05865 -0.05865,-0.1173 -0.05865,-0.17595l0,-0.05865l0,-0.05865" id="svg_9" stroke="#000" fill="none"/>
  <path d="m1.85337,12.22287c0,-0.05865 0.05865,-0.05865 0.05865,-0.17595c0,-0.05865 -0.01718,-0.07583 -0.05865,-0.1173c-0.04147,-0.04147 -0.1173,0 -0.17595,0l-0.05865,0l0.05865,0" id="svg_10" stroke="#000" fill="none"/>
  <polyline stroke-linecap="round" id="svg_11" points="43.319645369643794,21.31378199740377 43.319645369643794,21.25513097276045 " stroke="#000" fill="none"/>
  <path d="m1.79472,11.87097c0,0.05865 -0.02894,0.16883 -0.05865,0.35191c-0.01879,0.11579 0,0.2346 0,0.17595c0,-0.05865 0,-0.1173 0,-0.17595l0,-0.1173l-0.05865,-0.05865l-0.05865,0" id="svg_12" stroke="#000" fill="none"/>
  <path d="m49.53666,17.32551c-0.1173,-0.05865 -0.17595,-0.05865 -0.2346,-0.05865l-0.05865,-0.05865" id="svg_13" stroke="#000" fill="none"/>
  <line id="svg_16" y2="18.20528" x2="18.51026" y1="5.0088" x1="18.86217" stroke="#000" fill="none"/>
  <line id="svg_17" y2="11.46041" x2="16.28152" y1="11.51906" x1="16.34017" stroke="#000" fill="none"/>
  <line id="svg_20" y2="17.44281" x2="18.15836" y1="16.68035" x1="16.51613" stroke="#000" fill="none"/>
  <line id="svg_21" y2="14.92082" x2="8.07038" y1="13.27859" x1="5.90029" stroke="#000" fill="none"/>
  <line id="svg_22" y2="16.44575" x2="15.2258" y1="17.97067" x1="18.39296" stroke="#000" fill="none"/>
  <line id="svg_23" y2="16.79765" x2="17.9824" y1="16.56305" x1="17.39589" stroke="#000" fill="none"/>
  <path d="m18.28571,17.99999c0.04762,0 0.06157,0.01395 0.09524,0.04762c0.03367,0.03367 0.04762,-0.04762 0.09524,-0.04762l0.04762,0l0,-0.04762l0.04762,0" id="svg_25" stroke="#000" fill="none"/>
  <polyline stroke-linecap="round" id="svg_26" points="16.428570278107664,12.095227882349215 16.428570278107664,12.047608854913745 " stroke="#000" fill="none"/>
  <path d="m18.33333,18.04761c0.04762,0 0.04762,-0.04762 0.04762,-0.09524l0.04762,0" id="svg_28" stroke="#000" fill="none"/>
  <rect id="svg_34" height="13.19047" width="0.52381" y="5.09523" x="18.33333" stroke="#000" fill="none"/>
  <line id="svg_36" y2="15.99999" x2="14.42857" y1="13.76189" x1="7.76191" stroke="#000" fill="none"/>
  <line id="svg_37" y2="10.90475" x2="13.28571" y1="10.95237" x1="13.28571" stroke="#000" fill="none"/>
  <line id="svg_43" y2="15.42856" x2="17.33333" y1="15.47618" x1="16.33333" stroke="#000" fill="none"/>
  <line transform="rotate(159.887 18.1667 17.6428)" id="svg_44" y2="17.61904" x2="18.19047" y1="17.66665" x1="18.14286" stroke="#000" fill="none"/>
 </g>
</svg>