<?xml version="1.0" standalone="no"?>
<!DOCTYPE svg PUBLIC "-//W3C//DTD SVG 20010904//EN"
 "http://www.w3.org/TR/2001/REC-SVG-20010904/DTD/svg10.dtd">
<svg version="1.0" xmlns="http://www.w3.org/2000/svg"
 width="36.000000pt" height="36.000000pt" viewBox="0 0 36.000000 36.000000"
 preserveAspectRatio="xMidYMid meet">

<g transform="translate(0.000000,36.000000) scale(0.100000,-0.100000)"
fill="#000000" stroke="none">
<path d="M110 317 c-23 -12 -25 -18 -24 -77 1 -36 5 -79 9 -97 7 -30 5 -33
-28 -46 -31 -14 -67 -50 -67 -69 0 -11 277 -10 284 0 9 15 -24 52 -60 67 -42
17 -51 38 -30 70 10 15 16 46 16 79 0 51 -2 57 -30 71 -35 18 -38 18 -70 2z"/>
<path d="M228 260 c3 -42 0 -70 -12 -94 -21 -44 -22 -43 20 -56 19 -7 40 -20
47 -31 8 -12 23 -19 44 -19 18 0 33 3 33 6 0 19 -26 46 -55 59 -37 15 -41 24
-24 57 22 40 21 96 -1 118 -11 11 -28 20 -38 20 -16 0 -18 -7 -14 -60z"/>
</g>
</svg>
