<?xml version="1.0" standalone="no"?>
<!DOCTYPE svg PUBLIC "-//W3C//DTD SVG 20010904//EN"
 "http://www.w3.org/TR/2001/REC-SVG-20010904/DTD/svg10.dtd">
<svg version="1.0" xmlns="http://www.w3.org/2000/svg"
 width="26.000000pt" height="26.000000pt" viewBox="0 0 26.000000 26.000000"
 preserveAspectRatio="xMidYMid meet">

<g transform="translate(0.000000,26.000000) scale(0.100000,-0.100000)"
fill="#000000" stroke="none">
<path d="M90 240 c-24 -24 -25 -41 -3 -88 16 -34 16 -36 -1 -46 -76 -44 -83
-78 -19 -95 48 -14 78 -14 126 0 64 17 57 51 -19 95 -17 10 -17 12 -1 46 9 20
17 43 17 52 0 22 -36 56 -60 56 -11 0 -29 -9 -40 -20z"/>
</g>
</svg>
