<svg width="65" height="65" viewBox="0 0 65 65" fill="none" xmlns="http://www.w3.org/2000/svg">
<path d="M59.1169 26.1739L59.1168 26.1738L39.16 6.22679C39.16 6.22677 39.1599 6.22674 39.1599 6.22671C35.4494 2.51781 29.4339 2.51781 25.7234 6.22671C25.7233 6.22674 25.7233 6.22677 25.7233 6.22679L5.76652 26.1738L5.76649 26.1738C2.0552 29.8834 2.0552 35.8979 5.76649 39.6075L5.76652 39.6075L25.7233 59.5544C25.7233 59.5544 25.7233 59.5545 25.7234 59.5545C29.4339 63.2635 35.4494 63.2635 39.1599 59.5545C39.1599 59.5545 39.16 59.5544 39.16 59.5544L59.1168 39.6075L59.1169 39.6074C62.8279 35.8979 62.8279 29.8834 59.1169 26.1739Z" fill="white"/>
<path d="M59.1169 26.1739L59.1168 26.1738L39.16 6.22679C39.16 6.22677 39.1599 6.22674 39.1599 6.22671C35.4494 2.51781 29.4339 2.51781 25.7234 6.22671C25.7233 6.22674 25.7233 6.22677 25.7233 6.22679L5.76652 26.1738L5.76649 26.1738C2.0552 29.8834 2.0552 35.8979 5.76649 39.6075L5.76652 39.6075L25.7233 59.5544C25.7233 59.5544 25.7233 59.5545 25.7234 59.5545C29.4339 63.2635 35.4494 63.2635 39.1599 59.5545C39.1599 59.5545 39.16 59.5544 39.16 59.5544L59.1168 39.6075L59.1169 39.6074C62.8279 35.8979 62.8279 29.8834 59.1169 26.1739Z" fill="url(#paint0_linear_0_111)"/>
<path d="M59.1169 26.1739L59.1168 26.1738L39.16 6.22679C39.16 6.22677 39.1599 6.22674 39.1599 6.22671C35.4494 2.51781 29.4339 2.51781 25.7234 6.22671C25.7233 6.22674 25.7233 6.22677 25.7233 6.22679L5.76652 26.1738L5.76649 26.1738C2.0552 29.8834 2.0552 35.8979 5.76649 39.6075L5.76652 39.6075L25.7233 59.5544C25.7233 59.5544 25.7233 59.5545 25.7234 59.5545C29.4339 63.2635 35.4494 63.2635 39.1599 59.5545C39.1599 59.5545 39.16 59.5544 39.16 59.5544L59.1168 39.6075L59.1169 39.6074C62.8279 35.8979 62.8279 29.8834 59.1169 26.1739Z" stroke="black" stroke-width="5"/>
<defs>
<linearGradient id="paint0_linear_0_111" x1="60" y1="60" x2="60" y2="5" gradientUnits="userSpaceOnUse">
<stop stop-color="#F74600"/>
<stop offset="1" stop-color="#F8CF42"/>
<stop offset="1" stop-color="#F8CF42"/>
</linearGradient>
</defs>
</svg>
