<?xml version="1.0" encoding="UTF-8"?>
<!DOCTYPE svg PUBLIC "-//W3C//DTD SVG 1.1//EN" "http://www.w3.org/Graphics/SVG/1.1/DTD/svg11.dtd">
<svg xmlns="http://www.w3.org/2000/svg" version="1.1" width="57px" height="50px" style="shape-rendering:geometricPrecision; text-rendering:geometricPrecision; image-rendering:optimizeQuality; fill-rule:evenodd; clip-rule:evenodd" xmlns:xlink="http://www.w3.org/1999/xlink">
<g><path style="opacity:0.887" fill="#909190" d="M 4.5 -0.5 C 45.5 -0.5 86.5 -0.5 127.5 -0.5 C 128.5 1.1667 129.833 2.5 131.5 3.5 C 131.5 31.5 131.5 59.5 131.5 87.5 C 129.66 89.168 127.66 90.668 125.5 92 C 85.8333 92.6667 46.1667 92.6667 6.5 92 C 3.3794 91.0332 1.046 89.1999 -0.5 86.5 C -0.5 59.5 -0.5 32.5 -0.5 5.5 C 1.137 3.5248 2.8036 1.5248 4.5 -0.5 Z m 4 9 C 46.5 8.5 84.5 8.5 122.5 8.5 C 122.5 33.1667 122.5 57.8333 122.5 82.5 C 84.8319 82.6667 47.1652 82.5 9.5 82 C 8.5056 57.5747 8.1723 33.0747 8.5 8.5 Z"/></g>
<g><path style="opacity:0.901" fill="#909190" d="M 44.5,95.5 C 58.504,95.3334 72.504,95.5001 86.5,96C 89.1667,98.6667 89.1667,101.333 86.5,104C 72.5,104.667 58.5,104.667 44.5,104C 41.9387,101.177 41.9387,98.3433 44.5,95.5 Z"/></g>
<g><path style="opacity:0.871" fill="#909090" d="M 105.5,116.5 C 78.8333,116.5 52.1667,116.5 25.5,116.5C 24.1667,113.833 24.1667,111.167 25.5,108.5C 51.8203,107.409 78.1536,107.242 104.5,108C 106.735,110.585 107.069,113.418 105.5,116.5 Z"/></g>
</svg>
