<?xml version="1.0" encoding="UTF-8"?>
<!DOCTYPE svg PUBLIC "-//W3C//DTD SVG 1.1//EN" "http://www.w3.org/Graphics/SVG/1.1/DTD/svg11.dtd">
<svg xmlns="http://www.w3.org/2000/svg" version="1.1" width="67px" height="117px" style="shape-rendering:geometricPrecision; text-rendering:geometricPrecision; image-rendering:optimizeQuality; fill-rule:evenodd; clip-rule:evenodd" xmlns:xlink="http://www.w3.org/1999/xlink">
<g><path style="opacity:0.919" fill="#9d9e9d" d="M 3.5,-0.5 C 23.1667,-0.5 42.8333,-0.5 62.5,-0.5C 64.1667,0.5 65.5,1.83333 66.5,3.5C 66.5,39.8333 66.5,76.1667 66.5,112.5C 65.5,114.167 64.1667,115.5 62.5,116.5C 42.8333,116.5 23.1667,116.5 3.5,116.5C 2.13632,114.809 0.802988,113.142 -0.5,111.5C -0.5,75.8333 -0.5,40.1667 -0.5,4.5C 0.802988,2.85774 2.13632,1.19107 3.5,-0.5 Z M 25.5,6.5 C 30.5,6.5 35.5,6.5 40.5,6.5C 40.5,7.5 40.5,8.5 40.5,9.5C 35.5,9.5 30.5,9.5 25.5,9.5C 25.5,8.5 25.5,7.5 25.5,6.5 Z M 7.5,16.5 C 24.8333,16.5 42.1667,16.5 59.5,16.5C 59.5,42.8333 59.5,69.1667 59.5,95.5C 42.1667,95.5 24.8333,95.5 7.5,95.5C 7.5,69.1667 7.5,42.8333 7.5,16.5 Z M 31.5,100.5 C 35.3488,100.502 38.0155,102.335 39.5,106C 36.7261,112.088 32.8928,112.921 28,108.5C 26.7801,104.707 27.9468,102.04 31.5,100.5 Z"/></g>
</svg>
